<svg id="visual" viewBox="0 0 960 540" width="960" height="540" xmlns="http://www.w3.org/2000/svg" xmlns:xlink="http://www.w3.org/1999/xlink" version="1.1"><rect x="0" y="0" width="960" height="540" fill="#1b1b1c"></rect><defs><linearGradient id="grad1_0" x1="43.8%" y1="0%" x2="100%" y2="100%"><stop offset="14.444444444444446%" stop-color="#5cd989" stop-opacity="1"></stop><stop offset="85.55555555555554%" stop-color="#5cd989" stop-opacity="1"></stop></linearGradient></defs><defs><linearGradient id="grad1_1" x1="43.8%" y1="0%" x2="100%" y2="100%"><stop offset="14.444444444444446%" stop-color="#5cd989" stop-opacity="1"></stop><stop offset="85.55555555555554%" stop-color="#00a89a" stop-opacity="1"></stop></linearGradient></defs><defs><linearGradient id="grad1_2" x1="43.8%" y1="0%" x2="100%" y2="100%"><stop offset="14.444444444444446%" stop-color="#007488" stop-opacity="1"></stop><stop offset="85.55555555555554%" stop-color="#00a89a" stop-opacity="1"></stop></linearGradient></defs><defs><linearGradient id="grad1_3" x1="43.8%" y1="0%" x2="100%" y2="100%"><stop offset="14.444444444444446%" stop-color="#007488" stop-opacity="1"></stop><stop offset="85.55555555555554%" stop-color="#274256" stop-opacity="1"></stop></linearGradient></defs><defs><linearGradient id="grad1_4" x1="43.8%" y1="0%" x2="100%" y2="100%"><stop offset="14.444444444444446%" stop-color="#1b1b1c" stop-opacity="1"></stop><stop offset="85.55555555555554%" stop-color="#274256" stop-opacity="1"></stop></linearGradient></defs><defs><linearGradient id="grad2_0" x1="0%" y1="0%" x2="56.3%" y2="100%"><stop offset="14.444444444444446%" stop-color="#5cd989" stop-opacity="1"></stop><stop offset="85.55555555555554%" stop-color="#5cd989" stop-opacity="1"></stop></linearGradient></defs><defs><linearGradient id="grad2_1" x1="0%" y1="0%" x2="56.3%" y2="100%"><stop offset="14.444444444444446%" stop-color="#00a89a" stop-opacity="1"></stop><stop offset="85.55555555555554%" stop-color="#5cd989" stop-opacity="1"></stop></linearGradient></defs><defs><linearGradient id="grad2_2" x1="0%" y1="0%" x2="56.3%" y2="100%"><stop offset="14.444444444444446%" stop-color="#00a89a" stop-opacity="1"></stop><stop offset="85.55555555555554%" stop-color="#007488" stop-opacity="1"></stop></linearGradient></defs><defs><linearGradient id="grad2_3" x1="0%" y1="0%" x2="56.3%" y2="100%"><stop offset="14.444444444444446%" stop-color="#274256" stop-opacity="1"></stop><stop offset="85.55555555555554%" stop-color="#007488" stop-opacity="1"></stop></linearGradient></defs><defs><linearGradient id="grad2_4" x1="0%" y1="0%" x2="56.3%" y2="100%"><stop offset="14.444444444444446%" stop-color="#274256" stop-opacity="1"></stop><stop offset="85.55555555555554%" stop-color="#1b1b1c" stop-opacity="1"></stop></linearGradient></defs><g transform="translate(960, 0)"><path d="M0 432C-29.5 407.2 -59 382.4 -83 363.6C-107 344.9 -125.5 332.3 -161.4 335.2C-197.3 338 -250.5 356.2 -268.1 336.2C-285.7 316.1 -267.8 257.8 -289.3 230.7C-310.7 203.6 -371.6 207.8 -389.2 187.4C-406.9 167.1 -381.3 122.3 -381.2 87C-381.1 51.7 -406.6 25.8 -432 0L0 0Z" fill="#272d38"></path><path d="M0 345.6C-23.6 325.7 -47.2 305.9 -66.4 290.9C-85.6 275.9 -100.4 265.9 -129.1 268.1C-157.8 270.4 -200.4 285 -214.5 269C-228.6 252.9 -214.3 206.2 -231.4 184.6C-248.6 162.9 -297.3 166.2 -311.4 150C-325.5 133.7 -305 97.9 -305 69.6C-304.9 41.3 -325.2 20.7 -345.6 0L0 0Z" fill="#145a72"></path><path d="M0 259.2C-17.7 244.3 -35.4 229.4 -49.8 218.2C-64.2 207 -75.3 199.4 -96.8 201.1C-118.4 202.8 -150.3 213.7 -160.9 201.7C-171.4 189.7 -160.7 154.7 -173.6 138.4C-186.4 122.2 -223 124.7 -233.5 112.5C-244.1 100.3 -228.8 73.4 -228.7 52.2C-228.7 31 -243.9 15.5 -259.2 0L0 0Z" fill="#008e96"></path><path d="M0 172.8C-11.8 162.9 -23.6 152.9 -33.2 145.5C-42.8 138 -50.2 132.9 -64.6 134.1C-78.9 135.2 -100.2 142.5 -107.2 134.5C-114.3 126.5 -107.1 103.1 -115.7 92.3C-124.3 81.4 -148.6 83.1 -155.7 75C-162.7 66.8 -152.5 48.9 -152.5 34.8C-152.4 20.7 -162.6 10.3 -172.8 0L0 0Z" fill="#00c195"></path><path d="M0 86.4C-5.9 81.4 -11.8 76.5 -16.6 72.7C-21.4 69 -25.1 66.5 -32.3 67C-39.5 67.6 -50.1 71.2 -53.6 67.2C-57.1 63.2 -53.6 51.6 -57.9 46.1C-62.1 40.7 -74.3 41.6 -77.8 37.5C-81.4 33.4 -76.3 24.5 -76.2 17.4C-76.2 10.3 -81.3 5.2 -86.4 0L0 0Z" fill="#5cd989"></path></g><g transform="translate(0, 540)"><path d="M0 -432C26.8 -407.8 53.5 -383.6 86.3 -378.3C119.1 -372.9 158 -386.4 177.5 -368.5C197 -350.6 197.2 -301.4 227.6 -285.4C258 -269.3 318.6 -286.4 336.2 -268.1C353.7 -249.8 328.2 -196.1 339.7 -163.6C351.1 -131.1 399.6 -119.9 421.2 -96.1C442.7 -72.4 437.4 -36.2 432 0L0 0Z" fill="#272d38"></path><path d="M0 -345.6C21.4 -326.3 42.8 -306.9 69.1 -302.6C95.3 -298.3 126.4 -309.1 142 -294.8C157.6 -280.5 157.7 -241.1 182.1 -228.3C206.4 -215.5 254.9 -229.1 269 -214.5C283 -199.8 262.6 -156.8 271.7 -130.9C280.9 -104.9 319.7 -95.9 336.9 -76.9C354.2 -57.9 349.9 -29 345.6 0L0 0Z" fill="#145a72"></path><path d="M0 -259.2C16.1 -244.7 32.1 -230.2 51.8 -227C71.5 -223.7 94.8 -231.8 106.5 -221.1C118.2 -210.4 118.3 -180.9 136.5 -171.2C154.8 -161.6 191.2 -171.8 201.7 -160.9C212.2 -149.9 196.9 -117.6 203.8 -98.1C210.7 -78.7 239.8 -71.9 252.7 -57.7C265.6 -43.4 262.4 -21.7 259.2 0L0 0Z" fill="#008e96"></path><path d="M0 -172.8C10.7 -163.1 21.4 -153.5 34.5 -151.3C47.7 -149.2 63.2 -154.5 71 -147.4C78.8 -140.2 78.9 -120.6 91 -114.1C103.2 -107.7 127.5 -114.6 134.5 -107.2C141.5 -99.9 131.3 -78.4 135.9 -65.4C140.5 -52.4 159.8 -47.9 168.5 -38.5C177.1 -29 174.9 -14.5 172.8 0L0 0Z" fill="#00c195"></path><path d="M0 -86.4C5.4 -81.6 10.7 -76.7 17.3 -75.7C23.8 -74.6 31.6 -77.3 35.5 -73.7C39.4 -70.1 39.4 -60.3 45.5 -57.1C51.6 -53.9 63.7 -57.3 67.2 -53.6C70.7 -50 65.6 -39.2 67.9 -32.7C70.2 -26.2 79.9 -24 84.2 -19.2C88.5 -14.5 87.5 -7.2 86.4 0L0 0Z" fill="#5cd989"></path></g></svg>