<svg width="960" height="540" viewBox="0 0 960 540" fill="none" xmlns="http://www.w3.org/2000/svg">
<g clip-path="url(#clip0_227_94)">
<rect width="960" height="540" fill="#1B1B1C"/>
<path d="M960 432C930.5 407.2 901 382.4 877 363.6C853 344.9 834.5 332.3 798.6 335.2C762.7 338 709.5 356.2 691.9 336.2C674.3 316.1 692.2 257.8 670.7 230.7C649.3 203.6 588.4 207.8 570.8 187.4C553.1 167.1 578.7 122.3 578.8 87C578.9 51.7 553.4 25.8 528 0H960V432Z" fill="url(#paint0_linear_227_94)"/>
<path d="M960 345.6C936.4 325.7 912.8 305.9 893.6 290.9C874.4 275.9 859.6 265.9 830.9 268.1C802.2 270.4 759.6 285 745.5 269C731.4 252.9 745.7 206.2 728.6 184.6C711.4 162.9 662.7 166.2 648.6 150C634.5 133.7 655 97.9 655 69.6C655.1 41.3 634.8 20.7 614.4 0H960V345.6Z" fill="url(#paint1_linear_227_94)"/>
<path d="M960 259.2C942.3 244.3 924.6 229.4 910.2 218.2C895.8 207 884.7 199.4 863.2 201.1C841.6 202.8 809.7 213.7 799.1 201.7C788.6 189.7 799.3 154.7 786.4 138.4C773.6 122.2 737 124.7 726.5 112.5C715.9 100.3 731.2 73.4 731.3 52.2C731.3 31 716.1 15.5 700.8 0H960V259.2Z" fill="url(#paint2_linear_227_94)"/>
<path d="M960 172.8C948.2 162.9 936.4 152.9 926.8 145.5C917.2 138 909.8 132.9 895.4 134.1C881.1 135.2 859.8 142.5 852.8 134.5C845.7 126.5 852.9 103.1 844.3 92.3C835.7 81.4 811.4 83.1 804.3 75C797.3 66.8 807.5 48.9 807.5 34.8C807.6 20.7 797.4 10.3 787.2 0H960V172.8Z" fill="url(#paint3_linear_227_94)"/>
<path d="M960 86.4C954.1 81.4 948.2 76.5 943.4 72.7C938.6 69 934.9 66.5 927.7 67C920.5 67.6 909.9 71.2 906.4 67.2C902.9 63.2 906.4 51.6 902.1 46.1C897.9 40.7 885.7 41.6 882.2 37.5C878.6 33.4 883.7 24.5 883.8 17.4C883.8 10.3 878.7 5.2 873.6 0H960V86.4Z" fill="url(#paint4_linear_227_94)"/>
<path fill-rule="evenodd" clip-rule="evenodd" d="M0.293121 108.268C0.195415 108.178 0.0977081 108.089 0 108V194.4L0.323585 194.695C21.3808 213.897 42.4625 233.122 68.3412 237.4C78.1673 239.031 88.6903 238.49 98.81 237.97C115.377 237.118 130.863 236.323 140.441 245.2C146.926 251.211 150.703 261.658 154.695 272.7C160.199 287.925 166.113 304.281 180.1 311.7C191.719 317.888 208.931 317.906 225.189 317.923C242.56 317.941 258.842 317.958 266.046 325.5C273.369 333.274 271.176 348.963 268.815 365.853C266.712 380.899 264.476 396.897 268.716 409.1C274.199 424.767 290.312 434.262 305.976 443.491C316.306 449.578 326.44 455.549 333.2 463.1C350.298 482.086 346.064 510.957 341.814 539.936L341.805 540L427.256 540C432.597 503.8 437.838 467.6 416.575 443.9C408.09 434.448 395.41 426.983 382.498 419.382C362.899 407.844 342.767 395.993 335.97 376.4C330.599 361.053 333.388 340.98 336.005 322.138C338.931 301.079 341.643 281.559 332.508 271.9C323.524 262.455 303.214 262.44 281.527 262.423C261.193 262.408 239.65 262.391 225.101 254.6C207.684 245.331 200.29 224.922 193.402 205.909C188.4 192.102 183.665 179.031 175.551 171.5C163.58 160.39 144.219 161.376 123.496 162.432C110.831 163.077 97.6575 163.748 85.3523 161.7C53.0321 156.42 26.7005 132.378 0.293121 108.268Z" fill="url(#paint5_linear_227_94)"/>
<path fill-rule="evenodd" clip-rule="evenodd" d="M0.323621 194.295C0.215747 194.197 0.107874 194.098 0 194V280.4L0.292277 280.666C16.117 295.077 31.8667 309.42 51.2311 312.6C58.656 313.858 66.5979 313.46 74.225 313.077C86.6121 312.457 98.1686 311.878 105.33 318.5C110.21 323.012 113.049 330.866 116.051 339.168C120.168 350.557 124.59 362.79 135.001 368.4C143.762 373.047 156.718 373.055 168.932 373.062C181.951 373.069 194.127 373.076 199.485 378.7C204.967 384.507 203.338 396.248 201.583 408.909C200.012 420.233 198.34 432.293 201.562 441.5C205.674 453.191 217.76 460.306 229.508 467.222C237.255 471.783 244.855 476.257 249.925 481.9C262.683 496.2 259.518 517.9 256.354 539.6L341.805 539.6L341.814 539.536C346.064 510.557 350.298 481.686 333.2 462.7C326.44 455.149 316.306 449.178 305.976 443.091C290.312 433.862 274.199 424.367 268.716 408.7C264.476 396.497 266.712 380.499 268.815 365.453C271.176 348.563 273.369 332.874 266.046 325.1C258.842 317.558 242.56 317.541 225.189 317.523C208.931 317.506 191.719 317.488 180.1 311.3C166.113 303.881 160.199 287.525 154.695 272.3C150.703 261.258 146.926 250.811 140.441 244.8C130.863 235.923 115.377 236.718 98.81 237.57C88.6903 238.09 78.1673 238.631 68.3412 237C42.4626 232.722 21.3809 213.497 0.323621 194.295Z" fill="url(#paint6_linear_227_94)"/>
</g>
<defs>
<linearGradient id="paint0_linear_227_94" x1="780" y1="141.75" x2="646.5" y2="277.5" gradientUnits="userSpaceOnUse">
<stop offset="0.387498" stop-color="#272D38"/>
<stop offset="0.962683" stop-color="#272D38" stop-opacity="0.5"/>
</linearGradient>
<linearGradient id="paint1_linear_227_94" x1="960" y1="1.71661e-05" x2="726" y2="216" gradientUnits="userSpaceOnUse">
<stop offset="0.635417" stop-color="#145A72" stop-opacity="0.5"/>
<stop offset="1" stop-color="#145A72"/>
</linearGradient>
<linearGradient id="paint2_linear_227_94" x1="854.25" y1="-27" x2="797" y2="193.5" gradientUnits="userSpaceOnUse">
<stop offset="0.317708" stop-color="#008E96" stop-opacity="0.5"/>
<stop offset="0.833333" stop-color="#008E96"/>
</linearGradient>
<linearGradient id="paint3_linear_227_94" x1="857.25" y1="-4.75" x2="841.25" y2="100" gradientUnits="userSpaceOnUse">
<stop offset="0.182425" stop-color="#00C195" stop-opacity="0.5"/>
<stop offset="1" stop-color="#00C195"/>
</linearGradient>
<linearGradient id="paint4_linear_227_94" x1="910" y1="-4.62623e-09" x2="909.75" y2="55.75" gradientUnits="userSpaceOnUse">
<stop stop-color="#5CD989" stop-opacity="0.5"/>
<stop offset="1" stop-color="#5CD989"/>
</linearGradient>
<linearGradient id="paint5_linear_227_94" x1="350" y1="224.25" x2="216" y2="358" gradientUnits="userSpaceOnUse">
<stop offset="0.40625" stop-color="#272D38" stop-opacity="0.5"/>
<stop offset="1" stop-color="#272D38"/>
</linearGradient>
<linearGradient id="paint6_linear_227_94" x1="259.5" y1="327.5" x2="138" y2="456" gradientUnits="userSpaceOnUse">
<stop offset="0.175286" stop-color="#145A72"/>
<stop offset="0.930867" stop-color="#145A72" stop-opacity="0.5"/>
</linearGradient>
<clipPath id="clip0_227_94">
<rect width="960" height="540" fill="white"/>
</clipPath>
</defs>
</svg>
